<mxfile host="app.diagrams.net" modified="2023-05-19T03:59:45.152Z" agent="Mozilla/5.0 (Windows NT 10.0; Win64; x64) AppleWebKit/537.36 (KHTML, like Gecko) Chrome/112.0.0.0 Safari/537.36" version="21.3.2" etag="s3VEOFSpnxHtz9PMUlit" type="github">
  <diagram name="Halaman-1" id="5bAbGurRb-6phUQpFCbA">
    <mxGraphModel>
      <root>
        <mxCell id="0" />
        <mxCell id="1" parent="0" />
      </root>
    </mxGraphModel>
  </diagram>
</mxfile>
